<mxfile host="app.diagrams.net" modified="2020-09-01T03:58:31.780Z" agent="5.0 (Macintosh; Intel Mac OS X 10_15_3) AppleWebKit/605.1.15 (KHTML, like Gecko) Version/13.0.5 Safari/605.1.15" etag="C-ATVC-PiNrDZtzV1aWV" version="13.6.6" type="github">
  <diagram id="_VjZMz2_dHwCOwyfmibl" name="Page-1">
    <mxGraphModel dx="2362" dy="811" grid="1" gridSize="10" guides="1" tooltips="1" connect="1" arrows="1" fold="1" page="1" pageScale="1" pageWidth="827" pageHeight="1169" math="0" shadow="0">
      <root>
        <mxCell id="0" />
        <mxCell id="1" parent="0" />
        <mxCell id="ytnNhcLyiP0Ofq73RZW3-1" value="- Monto&lt;br&gt;- Cantidad de ventas" style="rounded=1;whiteSpace=wrap;html=1;" vertex="1" parent="1">
          <mxGeometry x="-10" y="220" width="220" height="140" as="geometry" />
        </mxCell>
        <mxCell id="ytnNhcLyiP0Ofq73RZW3-2" value="Barrio" style="rounded=1;whiteSpace=wrap;html=1;" vertex="1" parent="1">
          <mxGeometry x="400" y="150" width="120" height="60" as="geometry" />
        </mxCell>
        <mxCell id="ytnNhcLyiP0Ofq73RZW3-3" value="UbicaciÃ³n" style="rounded=1;whiteSpace=wrap;html=1;" vertex="1" parent="1">
          <mxGeometry x="400" y="250" width="120" height="60" as="geometry" />
        </mxCell>
        <mxCell id="ytnNhcLyiP0Ofq73RZW3-4" value="Asalto" style="rounded=1;whiteSpace=wrap;html=1;" vertex="1" parent="1">
          <mxGeometry x="400" y="360" width="120" height="60" as="geometry" />
        </mxCell>
        <mxCell id="ytnNhcLyiP0Ofq73RZW3-5" value="" style="endArrow=none;html=1;exitX=0.995;exitY=0.329;exitDx=0;exitDy=0;exitPerimeter=0;" edge="1" parent="1" source="ytnNhcLyiP0Ofq73RZW3-6">
          <mxGeometry width="50" height="50" relative="1" as="geometry">
            <mxPoint x="350" y="220" as="sourcePoint" />
            <mxPoint x="400" y="170" as="targetPoint" />
          </mxGeometry>
        </mxCell>
        <mxCell id="ytnNhcLyiP0Ofq73RZW3-6" value="" style="ellipse;whiteSpace=wrap;html=1;aspect=fixed;" vertex="1" parent="1">
          <mxGeometry x="250" y="220" width="30" height="30" as="geometry" />
        </mxCell>
        <mxCell id="ytnNhcLyiP0Ofq73RZW3-7" value="" style="endArrow=none;html=1;exitX=0.995;exitY=0.329;exitDx=0;exitDy=0;exitPerimeter=0;" edge="1" parent="1" source="ytnNhcLyiP0Ofq73RZW3-1" target="ytnNhcLyiP0Ofq73RZW3-6">
          <mxGeometry width="50" height="50" relative="1" as="geometry">
            <mxPoint x="208.9000000000001" y="266.05999999999995" as="sourcePoint" />
            <mxPoint x="400" y="170" as="targetPoint" />
          </mxGeometry>
        </mxCell>
        <mxCell id="ytnNhcLyiP0Ofq73RZW3-8" value="" style="ellipse;whiteSpace=wrap;html=1;aspect=fixed;" vertex="1" parent="1">
          <mxGeometry x="330" y="180" width="30" height="30" as="geometry" />
        </mxCell>
        <mxCell id="ytnNhcLyiP0Ofq73RZW3-9" value="Tipo" style="text;html=1;strokeColor=none;fillColor=none;align=center;verticalAlign=middle;whiteSpace=wrap;rounded=0;" vertex="1" parent="1">
          <mxGeometry x="230" y="180" width="40" height="20" as="geometry" />
        </mxCell>
        <mxCell id="ytnNhcLyiP0Ofq73RZW3-10" value="Producto" style="text;html=1;strokeColor=none;fillColor=none;align=center;verticalAlign=middle;whiteSpace=wrap;rounded=0;" vertex="1" parent="1">
          <mxGeometry x="310" y="140" width="40" height="20" as="geometry" />
        </mxCell>
        <mxCell id="ytnNhcLyiP0Ofq73RZW3-16" value="proposals" style="swimlane;childLayout=stackLayout;horizontal=1;startSize=30;horizontalStack=0;rounded=1;fontSize=14;fontStyle=0;strokeWidth=2;resizeParent=0;resizeLast=1;shadow=0;dashed=0;align=center;" vertex="1" parent="1">
          <mxGeometry x="500" y="520" width="160" height="120" as="geometry" />
        </mxCell>
        <mxCell id="ytnNhcLyiP0Ofq73RZW3-17" value="+id&#xa;+tool&#xa;+budget&#xa;+deadline" style="align=left;strokeColor=none;fillColor=none;spacingLeft=4;fontSize=12;verticalAlign=top;resizable=0;rotatable=0;part=1;" vertex="1" parent="ytnNhcLyiP0Ofq73RZW3-16">
          <mxGeometry y="30" width="160" height="90" as="geometry" />
        </mxCell>
        <mxCell id="ytnNhcLyiP0Ofq73RZW3-20" value="proposals_neighborhood" style="swimlane;childLayout=stackLayout;horizontal=1;startSize=30;horizontalStack=0;rounded=1;fontSize=14;fontStyle=0;strokeWidth=2;resizeParent=0;resizeLast=1;shadow=0;dashed=0;align=center;" vertex="1" parent="1">
          <mxGeometry x="490" y="720" width="160" height="120" as="geometry" />
        </mxCell>
        <mxCell id="ytnNhcLyiP0Ofq73RZW3-21" value="+id&#xa;+neighborhood_board_id&#xa;+proposal_id&#xa;+date&#xa;+goal" style="align=left;strokeColor=none;fillColor=none;spacingLeft=4;fontSize=12;verticalAlign=top;resizable=0;rotatable=0;part=1;" vertex="1" parent="ytnNhcLyiP0Ofq73RZW3-20">
          <mxGeometry y="30" width="160" height="90" as="geometry" />
        </mxCell>
        <mxCell id="ytnNhcLyiP0Ofq73RZW3-28" style="edgeStyle=orthogonalEdgeStyle;rounded=0;orthogonalLoop=1;jettySize=auto;html=1;entryX=0.569;entryY=1.044;entryDx=0;entryDy=0;entryPerimeter=0;" edge="1" parent="1" source="ytnNhcLyiP0Ofq73RZW3-14" target="ytnNhcLyiP0Ofq73RZW3-13">
          <mxGeometry relative="1" as="geometry" />
        </mxCell>
        <mxCell id="ytnNhcLyiP0Ofq73RZW3-14" value="neighborhood_board" style="swimlane;childLayout=stackLayout;horizontal=1;startSize=30;horizontalStack=0;rounded=1;fontSize=14;fontStyle=0;strokeWidth=2;resizeParent=0;resizeLast=1;shadow=0;dashed=0;align=center;" vertex="1" parent="1">
          <mxGeometry x="265" y="720" width="160" height="120" as="geometry" />
        </mxCell>
        <mxCell id="ytnNhcLyiP0Ofq73RZW3-15" value="+id&#xa;+neighborhood_id&#xa;+force" style="align=left;strokeColor=none;fillColor=none;spacingLeft=4;fontSize=12;verticalAlign=top;resizable=0;rotatable=0;part=1;" vertex="1" parent="ytnNhcLyiP0Ofq73RZW3-14">
          <mxGeometry y="30" width="160" height="90" as="geometry" />
        </mxCell>
        <mxCell id="ytnNhcLyiP0Ofq73RZW3-23" style="edgeStyle=orthogonalEdgeStyle;rounded=0;orthogonalLoop=1;jettySize=auto;html=1;entryX=0.563;entryY=-0.025;entryDx=0;entryDy=0;entryPerimeter=0;" edge="1" parent="1" source="ytnNhcLyiP0Ofq73RZW3-17" target="ytnNhcLyiP0Ofq73RZW3-20">
          <mxGeometry relative="1" as="geometry" />
        </mxCell>
        <mxCell id="ytnNhcLyiP0Ofq73RZW3-24" style="edgeStyle=orthogonalEdgeStyle;rounded=0;orthogonalLoop=1;jettySize=auto;html=1;entryX=0;entryY=0.5;entryDx=0;entryDy=0;" edge="1" parent="1" source="ytnNhcLyiP0Ofq73RZW3-15" target="ytnNhcLyiP0Ofq73RZW3-21">
          <mxGeometry relative="1" as="geometry" />
        </mxCell>
        <mxCell id="ytnNhcLyiP0Ofq73RZW3-12" value="neighborhood" style="swimlane;childLayout=stackLayout;horizontal=1;startSize=30;horizontalStack=0;rounded=1;fontSize=14;fontStyle=0;strokeWidth=2;resizeParent=0;resizeLast=1;shadow=0;dashed=0;align=center;" vertex="1" parent="1">
          <mxGeometry x="254" y="525" width="160" height="120" as="geometry" />
        </mxCell>
        <mxCell id="ytnNhcLyiP0Ofq73RZW3-13" value="+id&#xa;+social_status&#xa;+ubication&#xa;+trends&#xa;" style="align=left;strokeColor=none;fillColor=none;spacingLeft=4;fontSize=12;verticalAlign=top;resizable=0;rotatable=0;part=1;" vertex="1" parent="ytnNhcLyiP0Ofq73RZW3-12">
          <mxGeometry y="30" width="160" height="90" as="geometry" />
        </mxCell>
        <mxCell id="ytnNhcLyiP0Ofq73RZW3-32" style="edgeStyle=orthogonalEdgeStyle;rounded=0;orthogonalLoop=1;jettySize=auto;html=1;entryX=0.5;entryY=1;entryDx=0;entryDy=0;" edge="1" parent="1" source="ytnNhcLyiP0Ofq73RZW3-25" target="ytnNhcLyiP0Ofq73RZW3-30">
          <mxGeometry relative="1" as="geometry" />
        </mxCell>
        <mxCell id="ytnNhcLyiP0Ofq73RZW3-25" value="criminal_acts" style="swimlane;childLayout=stackLayout;horizontal=1;startSize=30;horizontalStack=0;rounded=1;fontSize=14;fontStyle=0;strokeWidth=2;resizeParent=0;resizeLast=1;shadow=0;dashed=0;align=center;" vertex="1" parent="1">
          <mxGeometry x="40" y="720" width="160" height="120" as="geometry" />
        </mxCell>
        <mxCell id="ytnNhcLyiP0Ofq73RZW3-26" value="+id&#xa;+level&#xa;+ubication&#xa;+description" style="align=left;strokeColor=none;fillColor=none;spacingLeft=4;fontSize=12;verticalAlign=top;resizable=0;rotatable=0;part=1;" vertex="1" parent="ytnNhcLyiP0Ofq73RZW3-25">
          <mxGeometry y="30" width="160" height="90" as="geometry" />
        </mxCell>
        <mxCell id="ytnNhcLyiP0Ofq73RZW3-29" value="neighborhood_criminal_acts" style="swimlane;childLayout=stackLayout;horizontal=1;startSize=30;horizontalStack=0;rounded=1;fontSize=14;fontStyle=0;strokeWidth=2;resizeParent=0;resizeLast=1;shadow=0;dashed=0;align=center;" vertex="1" parent="1">
          <mxGeometry x="30" y="525" width="180" height="120" as="geometry" />
        </mxCell>
        <mxCell id="ytnNhcLyiP0Ofq73RZW3-30" value="+id&#xa;+neighborhood_id&#xa;+criminal_act_id&#xa;+name_of_band" style="align=left;strokeColor=none;fillColor=none;spacingLeft=4;fontSize=12;verticalAlign=top;resizable=0;rotatable=0;part=1;" vertex="1" parent="ytnNhcLyiP0Ofq73RZW3-29">
          <mxGeometry y="30" width="180" height="90" as="geometry" />
        </mxCell>
        <mxCell id="ytnNhcLyiP0Ofq73RZW3-31" style="edgeStyle=orthogonalEdgeStyle;rounded=0;orthogonalLoop=1;jettySize=auto;html=1;entryX=1;entryY=0.5;entryDx=0;entryDy=0;" edge="1" parent="1" source="ytnNhcLyiP0Ofq73RZW3-13" target="ytnNhcLyiP0Ofq73RZW3-30">
          <mxGeometry relative="1" as="geometry" />
        </mxCell>
      </root>
    </mxGraphModel>
  </diagram>
</mxfile>
